PathFileType	3	(X/Y/Z)	random_1__fused_aligned.trc
DataRate	CameraRate	NumFrames	NumMarkers	Units	OrigDataRate	OrigDataStartFrame	OrigNumFrames
100.0	100.0	11	19	mm	100.0	1803	1870
Frame#	Time	pelvis			neck			head			hip_left			hip_right			knee_left			knee_right			ankle_left			ankle_right			heel_left			heel_right			toe_left			toe_right			shoulder_left			shoulder_right			elbow_left			elbow_right			wrist_left			wrist_right			
		X1	Y1	Z1	X2	Y2	Z2	X3	Y3	Z3	X4	Y4	Z4	X5	Y5	Z5	X6	Y6	Z6	X7	Y7	Z7	X8	Y8	Z8	X9	Y9	Z9	X10	Y10	Z10	X11	Y11	Z11	X12	Y12	Z12	X13	Y13	Z13	X14	Y14	Z14	X15	Y15	Z15	X16	Y16	Z16	X17	Y17	Z17	X18	Y18	Z18	X19	Y19	Z19	
1803	18.02000	6.455718	947.618210	319.363142	84.529987	1524.373287	290.043273	236.041164	1563.679271	246.608285	-13.498262	943.014814	245.562988	26.409847	952.221610	393.163215	95.402940	535.008861	111.811905	120.477144	519.624905	378.512975	41.846429	115.044994	65.832537	29.937746	111.198866	372.022164	9.018863	66.798492	78.380309	-7.256979	63.266729	372.125387	208.070839	45.648624	-22.932617	213.785809	54.612804	347.450478	-5.896097	1544.939752	153.852764	74.762193	1504.389382	458.585541	22.677003	1538.855462	-128.708100	194.258920	1454.372049	710.706737	210.939784	1472.156973	-287.343128	412.587255	1442.844329	846.358772
1804	18.03000	5.116384	947.555718	320.382775	83.556645	1524.331565	290.894532	234.903949	1563.872885	247.078291	-14.960111	942.999292	246.623256	25.193089	952.112146	394.142204	94.870416	535.367906	112.402775	119.084666	519.415863	378.965317	39.061187	115.774025	66.855273	28.833942	110.904672	372.452783	6.009860	67.760849	79.515740	-8.361069	62.993378	372.615825	204.589924	45.234723	-22.117679	212.598651	54.039902	347.741347	-6.868977	1544.676293	154.695763	74.039538	1504.436730	459.469179	24.131276	1538.257540	-128.240698	193.371480	1453.625747	711.185184	214.738115	1471.402640	-284.971512	412.077725	1441.131832	845.797679
1805	18.04000	3.777050	947.493227	321.402408	82.583302	1524.289843	291.745791	233.766734	1564.066499	247.548298	-16.421960	942.983769	247.683524	23.976332	952.002681	395.121194	94.337892	535.726951	112.993645	117.692189	519.206820	379.417659	36.275945	116.503056	67.878008	27.730137	110.610479	372.883401	3.000857	68.723206	80.651170	-9.465158	62.720027	373.106262	201.109009	44.820822	-21.302741	211.411493	53.467000	348.032216	-7.841857	1544.412834	155.538763	73.316883	1504.484078	460.352817	25.585549	1537.659619	-127.773295	192.484039	1452.879446	711.663631	218.536447	1470.648308	-282.599897	411.568194	1439.419334	845.236586
1806	18.05000	2.437715	947.430735	322.422042	81.609960	1524.248122	292.597050	232.629518	1564.260113	248.018305	-17.883809	942.968247	248.743792	22.759575	951.893217	396.100184	93.805368	536.085996	113.584515	116.299711	518.997777	379.870001	33.490702	117.232087	68.900744	26.626332	110.316286	373.314019	-0.008146	69.685563	81.786601	-10.569247	62.446677	373.596699	197.628094	44.406921	-20.487803	210.224335	52.894098	348.323086	-8.814737	1544.149375	156.381763	72.594227	1504.531427	461.236455	27.039823	1537.061697	-127.305892	191.596598	1452.133144	712.142078	222.334778	1469.893975	-280.228281	411.058664	1437.706837	844.675493
1807	18.06000	1.098381	947.368243	323.441675	80.636618	1524.206400	293.448309	231.492303	1564.453728	248.488311	-19.345658	942.952724	249.804060	21.542818	951.783753	397.079173	93.272845	536.445041	114.175385	114.907234	518.788735	380.322343	30.705460	117.961118	69.923480	25.522527	110.022092	373.744638	-3.017149	70.647920	82.922032	-11.673337	62.173326	374.087136	194.147179	43.993020	-19.672864	209.037178	52.321196	348.613955	-9.787617	1543.885916	157.224763	71.871572	1504.578775	462.120093	28.494096	1536.463776	-126.838490	190.709158	1451.386842	712.620525	226.133110	1469.139643	-277.856666	410.549134	1435.994340	844.114400
1808	18.07000	-0.054796	947.316323	324.103661	80.076698	1523.987648	294.062868	230.808988	1564.504356	248.951097	-20.589451	942.888258	250.480069	20.480242	951.744379	397.727156	93.619961	536.874189	115.126817	113.582382	518.697575	380.555789	26.065140	121.213804	73.433102	24.617058	109.961738	373.946788	-8.102698	74.733225	86.570063	-12.568175	62.136891	374.397150	187.361260	44.888155	-14.714011	207.965644	51.970124	348.286167	-10.171376	1543.510977	157.750937	71.357526	1504.205891	462.690832	28.564588	1534.732953	-126.334275	188.354861	1448.943133	712.731933	227.438895	1465.685790	-275.349545	407.412398	1430.362449	841.923084
1809	18.08000	-1.207973	947.264403	324.765648	79.516778	1523.768896	294.677427	230.125672	1564.554985	249.413883	-21.833244	942.823791	251.156079	19.417666	951.705004	398.375139	93.967078	537.303337	116.078248	112.257529	518.606415	380.789235	21.424820	124.466490	76.942724	23.711589	109.901383	374.148939	-13.188248	78.818530	90.218095	-13.463014	62.100456	374.707163	180.575341	45.783289	-9.755158	206.894111	51.619053	347.958378	-10.555135	1543.136038	158.277112	70.843479	1503.833008	463.261572	28.635079	1533.002131	-125.830060	186.000564	1446.499423	712.843342	228.744680	1462.231937	-272.842425	404.275663	1424.730558	839.731767
1810	18.09000	-2.361150	947.212484	325.427634	78.956858	1523.550144	295.291986	229.442357	1564.605614	249.876669	-23.077038	942.759325	251.832088	18.355090	951.665630	399.023121	94.314195	537.732485	117.029680	110.932677	518.515256	381.022681	16.784500	127.719176	80.452346	22.806120	109.841028	374.351090	-18.273797	82.903834	93.866127	-14.357853	62.064021	375.017177	173.789422	46.678424	-4.796304	205.822577	51.267982	347.630589	-10.938894	1542.761099	158.803287	70.329433	1503.460125	463.832311	28.705570	1531.271308	-125.325845	183.646267	1444.055714	712.954750	230.050465	1458.778084	-270.335304	401.138928	1419.098667	837.540451
1811	18.10000	-3.514327	947.160564	326.089621	78.396937	1523.331392	295.906545	228.759042	1564.656242	250.339455	-24.320831	942.694859	252.508098	17.292514	951.626255	399.671104	94.661312	538.161633	117.981111	109.607825	518.424096	381.256127	12.144180	130.971863	83.961969	21.900651	109.780674	374.553240	-23.359346	86.989139	97.514159	-15.252692	62.027587	375.327191	167.003502	47.573558	0.162549	204.751044	50.916911	347.302800	-11.322653	1542.386161	159.329462	69.815387	1503.087241	464.403050	28.776062	1529.540485	-124.821631	181.291970	1441.612004	713.066159	231.356250	1455.324230	-267.828184	398.002193	1413.466775	835.349135
1812	18.11000	-4.667504	947.108644	326.751607	77.837017	1523.112641	296.521104	228.075726	1564.706871	250.802241	-25.564624	942.630392	253.184107	16.229938	951.586880	400.319086	95.008429	538.590781	118.932543	108.282973	518.332936	381.489573	7.503859	134.224549	87.471591	20.995182	109.720319	374.755391	-28.444895	91.074443	101.162191	-16.147530	61.991152	375.637204	160.217583	48.468693	5.121402	203.679510	50.565840	346.975011	-11.706412	1542.011222	159.855637	69.301340	1502.714358	464.973789	28.846553	1527.809663	-124.317416	178.937673	1439.168294	713.177568	232.662035	1451.870377	-265.321063	394.865458	1407.834884	833.157818
1813	18.12000	-5.820681	947.056724	327.413594	77.277097	1522.893889	297.135663	227.392411	1564.757499	251.265026	-26.808418	942.565926	253.860117	15.167362	951.547506	400.967069	95.355545	539.019929	119.883974	106.958121	518.241776	381.723019	2.863539	137.477235	90.981213	20.089713	109.659965	374.957542	-33.530445	95.159748	104.810223	-17.042369	61.954717	375.947218	153.431664	49.363827	10.080256	202.607977	50.214768	346.647222	-12.090170	1541.636283	160.381811	68.787294	1502.341474	465.544528	28.917045	1526.078840	-123.813201	176.583376	1436.724585	713.288976	233.967820	1448.416524	-262.813943	391.728723	1402.202993	830.966502
